<svg data-v-423bf9ae=""
  xmlns="http://www.w3.org/2000/svg" viewBox="0 0 429.5462875192979 60" class="font">
  <g data-v-423bf9ae="" id="229b65a0-003e-4a77-a2cb-cee55145454c" fill="white" transform="matrix(5.592433171222897,0,0,5.592433171222897,-3.6875489962770303,-0.6219774216662941)">
    <path d="M0.74 9.98L0.74 9.98C1.30 10.26 1.83 10.44 2.34 10.56C4.89 11.16 7.14 10.07 7.14 7.53C7.14 5.00 4.07 4.48 3.44 4.00C3.25 3.85 3.14 3.63 3.14 3.42C3.12 2.94 3.50 2.69 3.92 2.63C4.58 2.56 5.43 2.83 5.92 3.02C6.12 3.11 6.24 2.81 6.05 2.73C5.24 2.39 4.61 2.27 3.93 2.31C3.29 2.34 2.79 2.81 2.81 3.46C2.90 4.73 4.63 4.47 6.01 5.75C7.20 6.85 6.99 8.60 6.03 9.56C4.79 10.81 2.52 10.54 0.91 9.70C0.71 9.60 0.56 9.88 0.74 9.98ZM6.30 0.71L6.30 0.71C5.64 0.49 5.14 0.38 4.75 0.32C2.49 0.01 0.80 1.32 0.80 3.49C0.80 6.09 3.86 6.45 4.52 7C4.84 7.29 4.90 7.80 4.56 8.11C3.86 8.75 2.06 8.23 1.18 7.62C1.01 7.50 0.81 7.76 0.99 7.88C1.89 8.54 3.02 8.76 3.91 8.71C4.56 8.67 5.15 8.20 5.11 7.55C5.03 6.26 3.32 6.50 1.95 5.31C0.74 4.23 0.97 2.45 1.86 1.48C2.97 0.28 4.69 0.49 6.19 1.01C6.38 1.09 6.50 0.78 6.30 0.71ZM11.14 10.50L11.14 10.50L11.14 0.49C11.14 0.41 11.07 0.34 10.99 0.34C10.89 0.34 10.82 0.41 10.82 0.49L10.82 10.50C10.82 10.58 10.89 10.65 10.99 10.65C11.07 10.65 11.14 10.58 11.14 10.50ZM9.14 10.50L9.14 10.50L9.14 0.49C9.14 0.41 9.07 0.34 8.99 0.34C8.89 0.34 8.82 0.41 8.82 0.49L8.82 10.50C8.82 10.58 8.89 10.65 8.99 10.65C9.07 10.65 9.14 10.58 9.14 10.50ZM20.61 9.79L20.61 9.79C19.87 10.21 19.03 10.40 18.19 10.40C15.92 10.40 14.41 9.20 13.71 7.63C13.13 6.36 13.12 4.83 13.64 3.53C14.31 1.92 15.79 0.66 18.20 0.59C18.98 0.56 19.74 0.69 20.48 0.92C20.57 0.95 20.65 0.91 20.69 0.83C20.72 0.74 20.66 0.64 20.58 0.62C19.80 0.36 19.01 0.22 18.19 0.25C15.64 0.34 14.04 1.69 13.34 3.40C12.78 4.79 12.81 6.41 13.41 7.76C14.15 9.44 15.76 10.74 18.19 10.74C19.12 10.74 20.03 10.49 20.86 10.02C20.90 9.98 20.94 9.93 20.93 9.87L20.93 5.49C20.93 5.40 20.86 5.33 20.78 5.33C20.69 5.33 20.61 5.40 20.61 5.49ZM20.34 2.65L20.34 2.65C19.67 2.34 18.91 2.25 18.19 2.28C16.67 2.34 15.71 3.16 15.29 4.21C14.97 5.05 14.98 6.05 15.34 6.87C15.78 7.91 16.74 8.71 18.19 8.71C18.38 8.71 18.58 8.69 18.76 8.65C18.84 8.65 18.90 8.58 18.90 8.50L18.90 5.49C18.90 5.40 18.83 5.33 18.75 5.33C18.65 5.33 18.58 5.40 18.58 5.49L18.58 8.34C18.44 8.37 18.31 8.37 18.19 8.37C16.88 8.37 16.04 7.67 15.64 6.75C15.30 6.01 15.29 5.10 15.60 4.34C15.97 3.40 16.83 2.66 18.20 2.62C18.89 2.58 19.57 2.66 20.22 2.94C20.30 2.98 20.40 2.94 20.43 2.86C20.47 2.79 20.43 2.69 20.34 2.65ZM31.46 10.50L31.46 10.50L31.46 4.17C31.46 4.00 31.26 3.93 31.16 4.09L28.32 8.15L25.48 4.07C25.38 3.95 25.17 4.00 25.17 4.17L25.17 10.50C25.17 10.58 25.24 10.65 25.33 10.65C25.44 10.65 25.51 10.58 25.51 10.50L25.51 4.69L28.17 8.54C28.18 8.55 28.20 8.57 28.21 8.58C28.31 8.62 28.41 8.61 28.45 8.54L31.14 4.69L31.14 10.50C31.14 10.58 31.21 10.65 31.30 10.65C31.39 10.65 31.46 10.58 31.46 10.50ZM23.48 10.50L23.48 10.50L23.48 0.34C23.48 0.25 23.39 0.18 23.30 0.18C23.21 0.18 23.14 0.25 23.14 0.34L23.14 10.50C23.14 10.58 23.21 10.65 23.30 10.65C23.39 10.65 23.48 10.58 23.48 10.50ZM33.49 10.50L33.49 10.50L33.49 0.34C33.49 0.25 33.42 0.18 33.32 0.18C33.24 0.18 33.17 0.25 33.17 0.34L33.17 10.50C33.17 10.58 33.24 10.65 33.32 10.65C33.42 10.65 33.49 10.58 33.49 10.50ZM31.36 0.25L31.36 0.25L28.32 4.61L25.27 0.25C25.21 0.17 25.12 0.15 25.05 0.21C24.98 0.25 24.95 0.36 25.00 0.43L28.17 4.98C28.18 5.00 28.20 5.01 28.21 5.03C28.31 5.08 28.41 5.05 28.45 4.98L31.63 0.43C31.67 0.36 31.65 0.25 31.58 0.21C31.51 0.15 31.40 0.17 31.36 0.25ZM38.39 7.57L38.39 7.57L39.86 7.57C39.96 7.57 40.03 7.50 40.03 7.42C40.03 7.39 40.03 7.38 40.01 7.35L39.28 5.56C39.24 5.46 39.16 5.42 39.06 5.46C38.99 5.49 38.95 5.59 38.98 5.67L39.63 7.27L38.39 7.27C38.30 7.27 38.22 7.34 38.22 7.42C38.22 7.50 38.30 7.57 38.39 7.57ZM37.34 10.40L37.34 10.40L37.67 9.59L40.57 9.59L40.91 10.40C40.95 10.50 41.03 10.53 41.12 10.50C41.20 10.47 41.24 10.36 41.22 10.29L40.84 9.38C40.82 9.32 40.77 9.28 40.68 9.28L37.58 9.28C37.51 9.28 37.44 9.31 37.42 9.38L37.04 10.29C37.00 10.36 37.04 10.47 37.14 10.50C37.23 10.53 37.31 10.50 37.34 10.40ZM35.17 10.40L35.17 10.40L39.13 0.70L43.09 10.40C43.12 10.50 43.22 10.53 43.30 10.50C43.39 10.47 43.41 10.36 43.39 10.29L39.28 0.22C39.23 0.08 39.03 0.07 38.98 0.22L34.87 10.29C34.83 10.36 34.87 10.47 34.96 10.50C35.04 10.53 35.14 10.50 35.17 10.40ZM47.12 10.50L47.12 10.50L47.12 0.49C47.12 0.41 47.05 0.34 46.97 0.34C46.87 0.34 46.80 0.41 46.80 0.49L46.80 10.50C46.80 10.58 46.87 10.65 46.97 10.65C47.05 10.65 47.12 10.58 47.12 10.50ZM45.12 10.50L45.12 10.50L45.12 0.49C45.12 0.41 45.05 0.34 44.97 0.34C44.87 0.34 44.80 0.41 44.80 0.49L44.80 10.50C44.80 10.58 44.87 10.65 44.97 10.65C45.05 10.65 45.12 10.58 45.12 10.50ZM57.86 10.50L57.86 10.50L57.86 0.50C57.86 0.28 57.53 0.28 57.53 0.50L57.53 10.50C57.53 10.71 57.86 10.71 57.86 10.50ZM49.70 10.50L49.70 10.50L49.70 0.50C49.70 0.28 49.38 0.28 49.38 0.50L49.38 10.50C49.38 10.71 49.70 10.71 49.70 10.50ZM51.23 0.59L51.23 0.59L55.57 6.82C55.65 6.96 55.87 6.87 55.87 6.72L55.87 0.50C55.87 0.28 55.54 0.28 55.54 0.50L55.54 6.20L51.48 0.41C51.37 0.22 51.10 0.42 51.23 0.59ZM56.03 10.40L56.03 10.40L51.69 4.17C51.58 4.05 51.38 4.12 51.38 4.27L51.38 10.50C51.38 10.71 51.72 10.71 51.72 10.50L51.72 4.79L55.75 10.60C55.89 10.77 56.14 10.58 56.03 10.40ZM64.54 6.33L64.54 6.33L62.29 6.33C62.19 6.33 62.12 6.40 62.12 6.50L62.12 10.50C62.12 10.71 62.45 10.71 62.45 10.50L62.45 6.66L64.54 6.66C64.75 6.66 64.75 6.33 64.54 6.33ZM65.46 2.34L65.46 2.34L62.29 2.34C62.19 2.34 62.12 2.41 62.12 2.49L62.12 4.49C62.12 4.58 62.19 4.66 62.29 4.66L64.54 4.66C64.75 4.66 64.75 4.33 64.54 4.33L62.45 4.33L62.45 2.66L65.46 2.66C65.67 2.66 65.67 2.34 65.46 2.34ZM60.45 10.50L60.45 10.50L60.45 0.66L65.46 0.66C65.67 0.66 65.67 0.34 65.46 0.34L60.28 0.34C60.20 0.34 60.12 0.41 60.12 0.49L60.12 10.50C60.12 10.71 60.45 10.71 60.45 10.50ZM77.46 3.86L77.46 3.86C76.75 1.64 74.62 0.13 72.28 0.13C69.12 0.13 66.93 2.39 66.93 5.47C66.93 8.57 69.12 10.84 72.28 10.84C74.62 10.84 76.75 9.34 77.46 7.08C77.49 7 77.43 6.90 77.35 6.87C77.25 6.85 77.17 6.89 77.14 6.99C76.47 9.10 74.49 10.50 72.28 10.50C69.31 10.50 67.26 8.39 67.26 5.47C67.26 2.56 69.31 0.46 72.28 0.46C74.49 0.46 76.47 1.86 77.14 3.96C77.17 4.06 77.25 4.10 77.35 4.07C77.43 4.06 77.49 3.95 77.46 3.86ZM69.48 7.11L69.48 7.11C70.06 8.12 71.12 8.76 72.28 8.76C74.09 8.76 75.52 7.27 75.52 5.47C75.52 3.70 74.09 2.20 72.28 2.20C71.12 2.20 70.06 2.83 69.48 3.84C69.44 3.92 69.47 4.02 69.54 4.07C69.62 4.12 69.73 4.09 69.78 4.00C70.28 3.09 71.23 2.52 72.28 2.52C73.91 2.52 75.18 3.86 75.18 5.47C75.18 7.08 73.91 8.43 72.28 8.43C71.23 8.43 70.28 7.85 69.78 6.94C69.73 6.87 69.62 6.85 69.54 6.89C69.47 6.93 69.44 7.04 69.48 7.11Z"></path>
  </g>
</svg>