<svg data-v-423bf9ae="" xmlns="http://www.w3.org/2000/svg" viewBox="0 0 358 90" class="iconLeft"><!----><!----><!----><g data-v-423bf9ae="" id="163439d5-f890-40a2-bd0c-cbcbd43977a5" fill="black" transform="matrix(6.1224488604322,0,0,6.1224488604322,117.52621243616665,-0.7959171159721379)"><path d="M9.24 8.93L9.24 11.44L9.24 11.44Q8.43 11.93 7.52 12.15L7.52 12.15L7.52 12.15Q6.61 12.38 5.53 12.38L5.53 12.38L5.53 12.38Q4.44 12.38 3.51 11.98L3.51 11.98L3.51 11.98Q2.59 11.59 1.92 10.91L1.92 10.91L1.92 10.91Q1.25 10.23 0.87 9.32L0.87 9.32L0.87 9.32Q0.49 8.40 0.49 7.34L0.49 7.34L0.49 7.34Q0.49 6.33 0.82 5.46L0.82 5.46L0.82 5.46Q1.15 4.59 1.76 3.95L1.76 3.95L1.76 3.95Q2.37 3.30 3.21 2.94L3.21 2.94L3.21 2.94Q4.06 2.58 5.11 2.58L5.11 2.58L5.11 2.58Q6.43 2.58 7.27 2.92L7.27 2.92L7.27 2.92Q8.11 3.26 8.50 3.71L8.50 3.71L8.50 3.71Q8.64 3.89 8.71 4.13L8.71 4.13L8.71 4.13Q8.78 4.37 8.81 4.63L8.81 4.63L8.81 4.63Q8.85 4.89 8.86 5.15L8.86 5.15L8.86 5.15Q8.86 5.42 8.86 5.66L8.86 5.66L8.44 5.66L8.44 5.66Q8.18 4.37 7.46 3.79L7.46 3.79L7.46 3.79Q6.75 3.21 5.53 3.21L5.53 3.21L5.53 3.21Q4.69 3.21 4.11 3.55L4.11 3.55L4.11 3.55Q3.53 3.89 3.16 4.47L3.16 4.47L3.16 4.47Q2.79 5.04 2.62 5.79L2.62 5.79L2.62 5.79Q2.45 6.54 2.45 7.34L2.45 7.34L2.45 7.34Q2.45 8.61 2.69 9.47L2.69 9.47L2.69 9.47Q2.93 10.33 3.35 10.85L3.35 10.85L3.35 10.85Q3.77 11.37 4.33 11.59L4.33 11.59L4.33 11.59Q4.89 11.82 5.53 11.82L5.53 11.82L5.53 11.82Q6.16 11.82 6.61 11.72L6.61 11.72L6.61 11.72Q7.06 11.62 7.42 11.45L7.42 11.45L7.42 8.96L7.42 8.96Q7.42 8.67 7.51 8.37L7.51 8.37L7.51 8.37Q7.60 8.06 7.89 7.82L7.89 7.82L7.89 7.82Q8.18 7.57 8.71 7.41L8.71 7.41L8.71 7.41Q9.24 7.25 10.14 7.25L10.14 7.25L10.14 7.60L10.14 7.60Q9.66 7.60 9.45 7.95L9.45 7.95L9.45 7.95Q9.24 8.30 9.24 8.93L9.24 8.93ZM14.22 11.61L14.22 11.61L14.22 11.61Q14.95 11.61 15.41 11.27L15.41 11.27L15.41 11.27Q15.86 10.93 16.23 10.44L16.23 10.44L16.66 10.77L16.66 10.77Q16.51 11.00 16.29 11.26L16.29 11.26L16.29 11.26Q16.07 11.52 15.76 11.74L15.76 11.74L15.76 11.74Q15.44 11.96 15.02 12.10L15.02 12.10L15.02 12.10Q14.59 12.24 14.01 12.24L14.01 12.24L14.01 12.24Q13.27 12.24 12.68 11.98L12.68 11.98L12.68 11.98Q12.08 11.72 11.66 11.26L11.66 11.26L11.66 11.26Q11.24 10.79 11.02 10.17L11.02 10.17L11.02 10.17Q10.79 9.55 10.79 8.81L10.79 8.81L10.79 8.81Q10.79 7.97 11.03 7.32L11.03 7.32L11.03 7.32Q11.27 6.68 11.68 6.25L11.68 6.25L11.68 6.25Q12.10 5.82 12.66 5.60L12.66 5.60L12.66 5.60Q13.22 5.38 13.87 5.38L13.87 5.38L13.87 5.38Q14.53 5.38 15.09 5.58L15.09 5.58L15.09 5.58Q15.65 5.78 16.06 6.15L16.06 6.15L16.06 6.15Q16.48 6.51 16.72 7.03L16.72 7.03L16.72 7.03Q16.95 7.55 16.95 8.18L16.95 8.18L16.95 8.18Q16.95 8.33 16.95 8.49L16.95 8.49L16.95 8.49Q16.94 8.65 16.93 8.78L16.93 8.78L16.93 8.78Q16.91 8.93 16.90 9.06L16.90 9.06L12.68 9.06L12.68 9.06Q12.68 10.44 13.11 11.03L13.11 11.03L13.11 11.03Q13.54 11.61 14.22 11.61ZM12.68 8.43L15.06 8.43L15.06 8.43Q15.06 7.73 14.97 7.27L14.97 7.27L14.97 7.27Q14.88 6.80 14.73 6.52L14.73 6.52L14.73 6.52Q14.57 6.24 14.36 6.13L14.36 6.13L14.36 6.13Q14.14 6.01 13.87 6.01L13.87 6.01L13.87 6.01Q13.64 6.01 13.42 6.13L13.42 6.13L13.42 6.13Q13.20 6.24 13.04 6.52L13.04 6.52L13.04 6.52Q12.88 6.80 12.78 7.27L12.78 7.27L12.78 7.27Q12.68 7.73 12.68 8.43L12.68 8.43ZM20.33 11.61L20.33 11.61L20.33 11.61Q21.11 11.61 21.42 11.33L21.42 11.33L21.42 11.33Q21.73 11.06 21.73 10.65L21.73 10.65L21.73 10.65Q21.73 10.25 21.36 10.00L21.36 10.00L21.36 10.00Q21 9.76 20.47 9.52L20.47 9.52L19.74 9.21L19.74 9.21Q18.90 8.85 18.42 8.39L18.42 8.39L18.42 8.39Q17.95 7.92 17.95 7.24L17.95 7.24L17.95 7.24Q17.95 6.78 18.14 6.43L18.14 6.43L18.14 6.43Q18.34 6.09 18.70 5.85L18.70 5.85L18.70 5.85Q19.05 5.61 19.54 5.50L19.54 5.50L19.54 5.50Q20.03 5.38 20.61 5.38L20.61 5.38L20.61 5.38Q21.48 5.38 22.03 5.53L22.03 5.53L22.03 5.53Q22.58 5.68 22.86 5.95L22.86 5.95L22.86 5.95Q23.11 6.19 23.16 6.64L23.16 6.64L23.16 6.64Q23.20 7.08 23.20 7.62L23.20 7.62L22.71 7.62L22.71 7.62Q22.60 6.94 22.16 6.47L22.16 6.47L22.16 6.47Q21.73 6.01 20.89 6.01L20.89 6.01L20.89 6.01Q20.26 6.01 19.98 6.28L19.98 6.28L19.98 6.28Q19.70 6.55 19.70 6.96L19.70 6.96L19.70 6.96Q19.70 7.34 19.96 7.57L19.96 7.57L19.96 7.57Q20.23 7.80 20.69 7.99L20.69 7.99L21.53 8.34L21.53 8.34Q22.50 8.75 22.99 9.19L22.99 9.19L22.99 9.19Q23.48 9.63 23.48 10.37L23.48 10.37L23.48 10.37Q23.48 10.84 23.26 11.18L23.26 11.18L23.26 11.18Q23.04 11.52 22.67 11.76L22.67 11.76L22.67 11.76Q22.29 12.00 21.76 12.12L21.76 12.12L21.76 12.12Q21.24 12.24 20.61 12.24L20.61 12.24L20.61 12.24Q19.74 12.24 19.19 12.08L19.19 12.08L19.19 12.08Q18.63 11.93 18.35 11.66L18.35 11.66L18.35 11.66Q18.10 11.42 18.06 10.98L18.06 10.98L18.06 10.98Q18.02 10.53 18.02 10.00L18.02 10.00L18.51 10.00L18.51 10.00Q18.62 10.67 19.05 11.14L19.05 11.14L19.05 11.14Q19.49 11.61 20.33 11.61ZM26.91 3.42L26.91 5.52L28.45 5.52L28.45 6.15L26.91 6.15L26.91 10.28L26.91 10.28Q26.91 11.06 27.10 11.33L27.10 11.33L27.10 11.33Q27.29 11.61 27.64 11.61L27.64 11.61L27.64 11.61Q27.86 11.61 28.06 11.55L28.06 11.55L28.06 11.55Q28.27 11.49 28.42 11.42L28.42 11.42L28.42 11.42Q28.59 11.34 28.74 11.23L28.74 11.23L28.94 11.62L28.94 11.62Q28.76 11.79 28.50 11.93L28.50 11.93L28.50 11.93Q28.28 12.04 27.94 12.14L27.94 12.14L27.94 12.14Q27.59 12.24 27.12 12.24L27.12 12.24L27.12 12.24Q26.17 12.24 25.63 11.72L25.63 11.72L25.63 11.72Q25.09 11.20 25.09 10.19L25.09 10.19L25.09 6.15L24.25 6.15L24.25 5.52L25.09 5.52L25.09 4.26L25.79 3.42L26.91 3.42ZM31.70 3.98L31.70 3.98L31.70 3.98Q31.70 4.34 31.47 4.55L31.47 4.55L31.47 4.55Q31.25 4.76 30.93 4.76L30.93 4.76L30.93 4.76Q30.39 4.76 30.14 4.44L30.14 4.44L30.14 4.44Q29.88 4.12 29.88 3.70L29.88 3.70L29.88 3.70Q29.88 3.33 30.10 3.12L30.10 3.12L30.10 3.12Q30.32 2.91 30.65 2.91L30.65 2.91L30.65 2.91Q31.18 2.91 31.44 3.23L31.44 3.23L31.44 3.23Q31.70 3.56 31.70 3.98ZM30.02 12.10L30.02 7.34L30.02 7.34Q30.02 6.71 29.84 6.32L29.84 6.32L29.84 6.32Q29.67 5.94 29.04 5.94L29.04 5.94L28.90 5.94L28.90 5.52L30.58 5.52L30.58 5.52Q30.94 5.52 31.18 5.61L31.18 5.61L31.18 5.61Q31.43 5.70 31.58 5.91L31.58 5.91L31.58 5.91Q31.72 6.12 31.78 6.47L31.78 6.47L31.78 6.47Q31.84 6.82 31.84 7.34L31.84 7.34L31.84 12.10L30.02 12.10ZM36.72 6.01L36.72 6.01L36.72 6.01Q35.98 6.01 35.51 6.69L35.51 6.69L35.51 6.69Q35.04 7.38 35.04 8.81L35.04 8.81L35.04 8.81Q35.04 11.61 36.79 11.61L36.79 11.61L36.79 11.61Q37.52 11.61 37.98 11.27L37.98 11.27L37.98 11.27Q38.43 10.93 38.79 10.44L38.79 10.44L39.23 10.77L39.23 10.77Q39.07 11.00 38.86 11.26L38.86 11.26L38.86 11.26Q38.64 11.52 38.32 11.74L38.32 11.74L38.32 11.74Q38.00 11.96 37.56 12.10L37.56 12.10L37.56 12.10Q37.11 12.24 36.51 12.24L36.51 12.24L36.51 12.24Q35.67 12.24 35.04 11.96L35.04 11.96L35.04 11.96Q34.41 11.69 33.99 11.22L33.99 11.22L33.99 11.22Q33.57 10.75 33.36 10.13L33.36 10.13L33.36 10.13Q33.15 9.51 33.15 8.81L33.15 8.81L33.15 8.81Q33.15 8.11 33.36 7.48L33.36 7.48L33.36 7.48Q33.57 6.86 33.99 6.39L33.99 6.39L33.99 6.39Q34.41 5.92 35.04 5.65L35.04 5.65L35.04 5.65Q35.67 5.38 36.51 5.38L36.51 5.38L36.51 5.38Q37.31 5.38 37.86 5.49L37.86 5.49L37.86 5.49Q38.42 5.60 38.68 5.87L38.68 5.87L38.68 5.87Q38.95 6.13 38.99 6.58L38.99 6.58L38.99 6.58Q39.03 7.03 39.03 7.83L39.03 7.83L38.61 7.83L38.61 7.83Q38.56 6.93 38.06 6.47L38.06 6.47L38.06 6.47Q37.56 6.01 36.72 6.01Z"></path></g><!----><g data-v-423bf9ae="" id="10929d30-a019-4a0a-aa96-b13f5c61ad50" transform="matrix(1.1169578472564536,0,0,1.1169578472564536,-4.847892362822684,-10.13589460006223)" stroke="none" fill="black"><path d="M86.48 9.712H13.52C8.822 9.712 5 13.533 5 18.23v52.706c0 4.697 3.822 8.52 8.52 8.52h72.96c4.697 0 8.52-3.822 8.52-8.52V18.23c0-4.697-3.822-8.518-8.52-8.518zm0 65.744H13.52A4.525 4.525 0 0 1 9 70.936v-7.77h4.875a1.5 1.5 0 0 0 0-3H9V18.23a4.525 4.525 0 0 1 4.52-4.519h72.96A4.525 4.525 0 0 1 91 18.23v41.937H24.125a1.5 1.5 0 0 0 0 3H91v7.77a4.524 4.524 0 0 1-4.52 4.519zM83.167 86.288h-2.628V84.75a2 2 0 0 0-4 0v1.538h-4.154V84.75a2 2 0 0 0-4 0v1.538H64.23V84.75a2 2 0 0 0-4 0v1.538h-4.153V84.75a2 2 0 0 0-4 0v1.538h-4.154V84.75a2 2 0 0 0-4 0v1.538H39.77V84.75a2 2 0 0 0-4 0v1.538h-4.154V84.75a2 2 0 0 0-4 0v1.538h-4.154V84.75a2 2 0 0 0-4 0v1.538h-2.628a2 2 0 0 0 0 4h66.334a2 2 0 0 0-.001-4z"></path><path d="M19.625 60.167h-1.25a1.5 1.5 0 0 0 0 3h1.25a1.5 1.5 0 0 0 0-3zM50 64.375c-.76 0-1.49.167-2.173.495a1.5 1.5 0 0 0 1.303 2.703A2.002 2.002 0 0 1 52 69.375a2 2 0 1 1-3.964.381 1.5 1.5 0 0 0-2.947.565A5.005 5.005 0 0 0 50 74.376c2.757 0 5-2.243 5-5s-2.243-5.001-5-5.001zM29.058 35.167a9.48 9.48 0 0 0 7.217-3.339l2.021.408c-.177.468-.279.97-.279 1.489v3.982c0 1.366.611 2.637 1.675 3.491l.006.006 4.468 3.584c.342.244.658.45.963.641a3.883 3.883 0 0 0-.258 1.331v6.74a3.929 3.929 0 0 0 3.924 3.925H59.74a3.93 3.93 0 0 0 3.925-3.925v-6.738c0-.914-.322-1.767-.868-2.447a4.968 4.968 0 0 0 .685-2.517V37.33l6.562 1.327c.305.062.608.091.908.091a4.632 4.632 0 0 0 4.524-3.695 4.556 4.556 0 0 0-.68-3.457 4.575 4.575 0 0 0-2.934-1.977c-1.082-.216-2.747-.553-4.904-.988l-3.072-.621-.058-.724c-.021-1.204-.618-2.428-1.208-3.115-.826-.967-2.197-1.506-3.466-1.384-.24.024-.473.075-.699.141-.491-1.004-1.349-1.517-2.452-1.881-.926-.306-1.951-.269-2.873.064-.063-.069-.112-.153-.179-.217a4.459 4.459 0 0 0-5.592-.46 3.895 3.895 0 0 0-2.315-.776c-2.1 0-3.944 1.688-4.237 3.694-.973-.196-1.665-.337-2.248-.459l-.456-.092a9.47 9.47 0 0 0-7.172-6.435 9.437 9.437 0 0 0-9.336 3.42c-.012.015-.019.031-.03.047-.029.04-.054.082-.079.125s-.051.086-.072.13c-.02.042-.035.087-.051.132-.018.05-.035.1-.047.151-.004.017-.012.031-.015.048-.006.03-.005.06-.009.09a1.564 1.564 0 0 0-.015.152 1.496 1.496 0 0 0 .049.437c.012.044.025.088.04.131a1.633 1.633 0 0 0 .125.261c.026.043.055.083.085.123a1.439 1.439 0 0 0 .206.222c.021.018.037.04.06.057.012.01.026.016.039.025.046.034.095.063.145.092.037.021.074.043.112.061.048.022.098.039.148.057.045.015.089.031.135.042.018.004.035.013.054.017l4.693.944a.92.92 0 0 1 .719 1.084l-.472 2.352a.926.926 0 0 1-1.088.715l-4.691-.945c-.019-.004-.038-.002-.057-.005-.05-.008-.101-.011-.152-.014-.046-.003-.091-.006-.136-.004a1.406 1.406 0 0 0-.169.018c-.04.006-.079.011-.118.02-.023.005-.045.005-.067.012-.039.011-.074.03-.112.044-.032.012-.063.023-.094.037a1.443 1.443 0 0 0-.25.142 1.469 1.469 0 0 0-.336.326 1.549 1.549 0 0 0-.251.52c-.007.028-.019.053-.025.081-.003.017-.002.033-.005.049a1.416 1.416 0 0 0-.016.161c-.003.047-.006.094-.004.14.002.048.008.096.015.144.007.052.014.103.026.153.004.017.004.035.009.052.015.052.039.1.054.152a.771.771 0 0 0 .009.026c1.012 3.37 3.75 5.89 7.207 6.591a9.875 9.875 0 0 0 1.894.186zm6.909-6.461a1.467 1.467 0 0 0-.302-.031h-.007c-.027 0-.052.007-.079.008-.068.004-.136.007-.203.02a1.387 1.387 0 0 0-.2.058c-.024.008-.05.013-.074.023a1.583 1.583 0 0 0-.217.111l-.039.021a1.484 1.484 0 0 0-.437.431 6.502 6.502 0 0 1-6.648 2.691 6.471 6.471 0 0 1-3.638-2.142l1.613.325a3.93 3.93 0 0 0 4.622-3.06l.472-2.353a3.88 3.88 0 0 0-.574-2.945 3.906 3.906 0 0 0-2.49-1.674l-1.623-.327a6.456 6.456 0 0 1 4.194-.556 6.462 6.462 0 0 1 4.922 4.512l-.206 1.035a1.501 1.501 0 0 0 1.474 1.792c.568 0 1.072-.333 1.324-.835l.107.021c.72.149 1.595.326 3.008.611l.258.052c.069.06.143.114.223.161v1.855c0 .476.091.939.248 1.375a1.487 1.487 0 0 0-.508-.101 1.505 1.505 0 0 0-.252-.078l-4.968-1zm7.721.737a2.02 2.02 0 0 1-.241-.932v-2.305c.13-.192.211-.417.24-.66.007-.028.025-.049.031-.078a1.49 1.49 0 0 0 .002-.58l.028-.948c0-.691.714-1.283 1.298-1.283.34 0 .572.2.685.324.116.127.21.285.271.459.098.275.27.501.483.669v3.813c-.332.089-.688.23-1.074.446l-1.723 1.075zm5.222-6.408c.536-.457 1.451-.477 1.956.016.071.068.134.144.186.225.127.195.293.346.479.459.001.021.005.041.005.061v4.716c0 .961-.665 1.771-1.465 1.809a3.875 3.875 0 0 0-.333-.812c-.295-.527-.703-1.047-1.253-1.371v-4.157c.247-.255.402-.589.425-.946zm4.898 1.069c.346-.251.861-.338 1.257-.207.792.261.792.261.839 1.052.022.368.178.694.414.942v3.822c0 .986-.637 1.819-1.39 1.819s-1.39-.833-1.39-1.819v-4.715c0-.299.064-.58.167-.833.034-.022.07-.038.103-.061zm5.139 1.917c.099-.134.286-.227.502-.247.304-.034.702.125.894.349.226.263.487.857.487 1.231 0 .04.002.079.005.119l.151 1.903c.001.013.009.024.01.037.018.169.062.331.133.481l.017.041v2.059c0 .986-.648 1.819-1.415 1.819s-1.414-.833-1.414-1.819v-4.715c0-.309.069-.599.18-.857a1.49 1.49 0 0 0 .45-.401zm13.589 8.433a1.616 1.616 0 0 1-1.898 1.262l-7.491-1.515v-1.668h-.049c.023-.177.049-.354.049-.538v-1.072l3.219.65c2.16.437 3.829.774 4.91.989.419.084.78.329 1.023.696.237.353.321.78.237 1.196zm-21.625-2.267a3.369 3.369 0 0 0 1.109-.546c.178.339.397.641.656.902l-1.765-.356zm5.566.901c.021.08.04.16.066.238l-.363-.073c.104-.047.199-.108.297-.165zM60.665 53.5a.938.938 0 0 1-.925.925H48.796a.937.937 0 0 1-.924-.925v-6.738c0-.277.127-.537.348-.715a1.404 1.404 0 0 0 .365-.433h1.279a1 1 0 1 0 0-2h-1.779c-.009-.006-.02-.01-.029-.015a1.341 1.341 0 0 0-.145-.077c-.022-.01-.041-.025-.064-.034-.53-.217-1.165-.59-1.87-1.091l-4.399-3.532-.003-.002-.001-.001a1.467 1.467 0 0 1-.557-1.154v-3.982c0-.399.191-.765.505-.969l.156-.064a.994.994 0 0 0 .771-.119l3.978-2.483c.896-.499 1.139-.366 1.565.396.154.275.232.573.232.885 0 .618-.319 1.181-.835 1.469l-2.407 1.347-.002.001a.976.976 0 0 0-.217.164c-.015.015-.021.036-.035.052a.92.92 0 0 0-.113.171c-.031.054-.063.105-.082.163-.021.061-.027.123-.036.187-.009.064-.019.125-.016.189.003.061.02.118.035.178a.934.934 0 0 0 .064.198c.009.019.008.039.019.058a.98.98 0 0 0 .411.394c.029.015.059.024.089.037a.976.976 0 0 0 .191.057c.017.003.033.013.05.015 3.899.689 6.387 2.452 7.602 5.39a.998.998 0 0 0 1.306.542 1 1 0 0 0 .542-1.306c-1.193-2.885-3.439-4.871-6.659-5.959l.236-.132c.331-.184.62-.423.872-.694l1.237.249 6.827 1.381.006.001 3.175.643v5.634c0 .608-.272 1.175-.749 1.554-.019.015-.033.034-.052.051a1.174 1.174 0 0 0-.118.116 1.273 1.273 0 0 0-.082.097h-6.929a1 1 0 1 0 0 2h7.089c.015.014.031.025.046.038.031.027.061.054.093.078.052.039.109.071.167.103.037.02.073.043.111.06.012.005.023.014.035.019.347.143.57.477.57.85V53.5z"></path></g><!----></svg>