<svg data-v-423bf9ae="" xmlns="http://www.w3.org/2000/svg" viewBox="0 0 237.1836557741816 60" class="font"><!----><!----><!----><g data-v-423bf9ae="" id="3aefa6d1-8aaa-4b2e-b16e-97a50ce8242f" fill="black" transform="matrix(6.1224488604322,0,0,6.1224488604322,-3.00000216344273,-15.795917115972138)"><path d="M9.24 8.93L9.24 11.44L9.24 11.44Q8.43 11.93 7.52 12.15L7.52 12.15L7.52 12.15Q6.61 12.38 5.53 12.38L5.53 12.38L5.53 12.38Q4.44 12.38 3.51 11.98L3.51 11.98L3.51 11.98Q2.59 11.59 1.92 10.91L1.92 10.91L1.92 10.91Q1.25 10.23 0.87 9.32L0.87 9.32L0.87 9.32Q0.49 8.40 0.49 7.34L0.49 7.34L0.49 7.34Q0.49 6.33 0.82 5.46L0.82 5.46L0.82 5.46Q1.15 4.59 1.76 3.95L1.76 3.95L1.76 3.95Q2.37 3.30 3.21 2.94L3.21 2.94L3.21 2.94Q4.06 2.58 5.11 2.58L5.11 2.58L5.11 2.58Q6.43 2.58 7.27 2.92L7.27 2.92L7.27 2.92Q8.11 3.26 8.50 3.71L8.50 3.71L8.50 3.71Q8.64 3.89 8.71 4.13L8.71 4.13L8.71 4.13Q8.78 4.37 8.81 4.63L8.81 4.63L8.81 4.63Q8.85 4.89 8.86 5.15L8.86 5.15L8.86 5.15Q8.86 5.42 8.86 5.66L8.86 5.66L8.44 5.66L8.44 5.66Q8.18 4.37 7.46 3.79L7.46 3.79L7.46 3.79Q6.75 3.21 5.53 3.21L5.53 3.21L5.53 3.21Q4.69 3.21 4.11 3.55L4.11 3.55L4.11 3.55Q3.53 3.89 3.16 4.47L3.16 4.47L3.16 4.47Q2.79 5.04 2.62 5.79L2.62 5.79L2.62 5.79Q2.45 6.54 2.45 7.34L2.45 7.34L2.45 7.34Q2.45 8.61 2.69 9.47L2.69 9.47L2.69 9.47Q2.93 10.33 3.35 10.85L3.35 10.85L3.35 10.85Q3.77 11.37 4.33 11.59L4.33 11.59L4.33 11.59Q4.89 11.82 5.53 11.82L5.53 11.82L5.53 11.82Q6.16 11.82 6.61 11.72L6.61 11.72L6.61 11.72Q7.06 11.62 7.42 11.45L7.42 11.45L7.42 8.96L7.42 8.96Q7.42 8.67 7.51 8.37L7.51 8.37L7.51 8.37Q7.60 8.06 7.89 7.82L7.89 7.82L7.89 7.82Q8.18 7.57 8.71 7.41L8.71 7.41L8.71 7.41Q9.24 7.25 10.14 7.25L10.14 7.25L10.14 7.60L10.14 7.60Q9.66 7.60 9.45 7.95L9.45 7.95L9.45 7.95Q9.24 8.30 9.24 8.93L9.24 8.93ZM14.22 11.61L14.22 11.61L14.22 11.61Q14.95 11.61 15.41 11.27L15.41 11.27L15.41 11.27Q15.86 10.93 16.23 10.44L16.23 10.44L16.66 10.77L16.66 10.77Q16.51 11.00 16.29 11.26L16.29 11.26L16.29 11.26Q16.07 11.52 15.76 11.74L15.76 11.74L15.76 11.74Q15.44 11.96 15.02 12.10L15.02 12.10L15.02 12.10Q14.59 12.24 14.01 12.24L14.01 12.24L14.01 12.24Q13.27 12.24 12.68 11.98L12.68 11.98L12.68 11.98Q12.08 11.72 11.66 11.26L11.66 11.26L11.66 11.26Q11.24 10.79 11.02 10.17L11.02 10.17L11.02 10.17Q10.79 9.55 10.79 8.81L10.79 8.81L10.79 8.81Q10.79 7.97 11.03 7.32L11.03 7.32L11.03 7.32Q11.27 6.68 11.68 6.25L11.68 6.25L11.68 6.25Q12.10 5.82 12.66 5.60L12.66 5.60L12.66 5.60Q13.22 5.38 13.87 5.38L13.87 5.38L13.87 5.38Q14.53 5.38 15.09 5.58L15.09 5.58L15.09 5.58Q15.65 5.78 16.06 6.15L16.06 6.15L16.06 6.15Q16.48 6.51 16.72 7.03L16.72 7.03L16.72 7.03Q16.95 7.55 16.95 8.18L16.95 8.18L16.95 8.18Q16.95 8.33 16.95 8.49L16.95 8.49L16.95 8.49Q16.94 8.65 16.93 8.78L16.93 8.78L16.93 8.78Q16.91 8.93 16.90 9.06L16.90 9.06L12.68 9.06L12.68 9.06Q12.68 10.44 13.11 11.03L13.11 11.03L13.11 11.03Q13.54 11.61 14.22 11.61ZM12.68 8.43L15.06 8.43L15.06 8.43Q15.06 7.73 14.97 7.27L14.97 7.27L14.97 7.27Q14.88 6.80 14.73 6.52L14.73 6.52L14.73 6.52Q14.57 6.24 14.36 6.13L14.36 6.13L14.36 6.13Q14.14 6.01 13.87 6.01L13.87 6.01L13.87 6.01Q13.64 6.01 13.42 6.13L13.42 6.13L13.42 6.13Q13.20 6.24 13.04 6.52L13.04 6.52L13.04 6.52Q12.88 6.80 12.78 7.27L12.78 7.27L12.78 7.27Q12.68 7.73 12.68 8.43L12.68 8.43ZM20.33 11.61L20.33 11.61L20.33 11.61Q21.11 11.61 21.42 11.33L21.42 11.33L21.42 11.33Q21.73 11.06 21.73 10.65L21.73 10.65L21.73 10.65Q21.73 10.25 21.36 10.00L21.36 10.00L21.36 10.00Q21 9.76 20.47 9.52L20.47 9.52L19.74 9.21L19.74 9.21Q18.90 8.85 18.42 8.39L18.42 8.39L18.42 8.39Q17.95 7.92 17.95 7.24L17.95 7.24L17.95 7.24Q17.95 6.78 18.14 6.43L18.14 6.43L18.14 6.43Q18.34 6.09 18.70 5.85L18.70 5.85L18.70 5.85Q19.05 5.61 19.54 5.50L19.54 5.50L19.54 5.50Q20.03 5.38 20.61 5.38L20.61 5.38L20.61 5.38Q21.48 5.38 22.03 5.53L22.03 5.53L22.03 5.53Q22.58 5.68 22.86 5.95L22.86 5.95L22.86 5.95Q23.11 6.19 23.16 6.64L23.16 6.64L23.16 6.64Q23.20 7.08 23.20 7.62L23.20 7.62L22.71 7.62L22.71 7.62Q22.60 6.94 22.16 6.47L22.16 6.47L22.16 6.47Q21.73 6.01 20.89 6.01L20.89 6.01L20.89 6.01Q20.26 6.01 19.98 6.28L19.98 6.28L19.98 6.28Q19.70 6.55 19.70 6.96L19.70 6.96L19.70 6.96Q19.70 7.34 19.96 7.57L19.96 7.57L19.96 7.57Q20.23 7.80 20.69 7.99L20.69 7.99L21.53 8.34L21.53 8.34Q22.50 8.75 22.99 9.19L22.99 9.19L22.99 9.19Q23.48 9.63 23.48 10.37L23.48 10.37L23.48 10.37Q23.48 10.84 23.26 11.18L23.26 11.18L23.26 11.18Q23.04 11.52 22.67 11.76L22.67 11.76L22.67 11.76Q22.29 12.00 21.76 12.12L21.76 12.12L21.76 12.12Q21.24 12.24 20.61 12.24L20.61 12.24L20.61 12.24Q19.74 12.24 19.19 12.08L19.19 12.08L19.19 12.08Q18.63 11.93 18.35 11.66L18.35 11.66L18.35 11.66Q18.10 11.42 18.06 10.98L18.06 10.98L18.06 10.98Q18.02 10.53 18.02 10.00L18.02 10.00L18.51 10.00L18.51 10.00Q18.62 10.67 19.05 11.14L19.05 11.14L19.05 11.14Q19.49 11.61 20.33 11.61ZM26.91 3.42L26.91 5.52L28.45 5.52L28.45 6.15L26.91 6.15L26.91 10.28L26.91 10.28Q26.91 11.06 27.10 11.33L27.10 11.33L27.10 11.33Q27.29 11.61 27.64 11.61L27.64 11.61L27.64 11.61Q27.86 11.61 28.06 11.55L28.06 11.55L28.06 11.55Q28.27 11.49 28.42 11.42L28.42 11.42L28.42 11.42Q28.59 11.34 28.74 11.23L28.74 11.23L28.94 11.62L28.94 11.62Q28.76 11.79 28.50 11.93L28.50 11.93L28.50 11.93Q28.28 12.04 27.94 12.14L27.94 12.14L27.94 12.14Q27.59 12.24 27.12 12.24L27.12 12.24L27.12 12.24Q26.17 12.24 25.63 11.72L25.63 11.72L25.63 11.72Q25.09 11.20 25.09 10.19L25.09 10.19L25.09 6.15L24.25 6.15L24.25 5.52L25.09 5.52L25.09 4.26L25.79 3.42L26.91 3.42ZM31.70 3.98L31.70 3.98L31.70 3.98Q31.70 4.34 31.47 4.55L31.47 4.55L31.47 4.55Q31.25 4.76 30.93 4.76L30.93 4.76L30.93 4.76Q30.39 4.76 30.14 4.44L30.14 4.44L30.14 4.44Q29.88 4.12 29.88 3.70L29.88 3.70L29.88 3.70Q29.88 3.33 30.10 3.12L30.10 3.12L30.10 3.12Q30.32 2.91 30.65 2.91L30.65 2.91L30.65 2.91Q31.18 2.91 31.44 3.23L31.44 3.23L31.44 3.23Q31.70 3.56 31.70 3.98ZM30.02 12.10L30.02 7.34L30.02 7.34Q30.02 6.71 29.84 6.32L29.84 6.32L29.84 6.32Q29.67 5.94 29.04 5.94L29.04 5.94L28.90 5.94L28.90 5.52L30.58 5.52L30.58 5.52Q30.94 5.52 31.18 5.61L31.18 5.61L31.18 5.61Q31.43 5.70 31.58 5.91L31.58 5.91L31.58 5.91Q31.72 6.12 31.78 6.47L31.78 6.47L31.78 6.47Q31.84 6.82 31.84 7.34L31.84 7.34L31.84 12.10L30.02 12.10ZM36.72 6.01L36.72 6.01L36.72 6.01Q35.98 6.01 35.51 6.69L35.51 6.69L35.51 6.69Q35.04 7.38 35.04 8.81L35.04 8.81L35.04 8.81Q35.04 11.61 36.79 11.61L36.79 11.61L36.79 11.61Q37.52 11.61 37.98 11.27L37.98 11.27L37.98 11.27Q38.43 10.93 38.79 10.44L38.79 10.44L39.23 10.77L39.23 10.77Q39.07 11.00 38.86 11.26L38.86 11.26L38.86 11.26Q38.64 11.52 38.32 11.74L38.32 11.74L38.32 11.74Q38.00 11.96 37.56 12.10L37.56 12.10L37.56 12.10Q37.11 12.24 36.51 12.24L36.51 12.24L36.51 12.24Q35.67 12.24 35.04 11.96L35.04 11.96L35.04 11.96Q34.41 11.69 33.99 11.22L33.99 11.22L33.99 11.22Q33.57 10.75 33.36 10.13L33.36 10.13L33.36 10.13Q33.15 9.51 33.15 8.81L33.15 8.81L33.15 8.81Q33.15 8.11 33.36 7.48L33.36 7.48L33.36 7.48Q33.57 6.86 33.99 6.39L33.99 6.39L33.99 6.39Q34.41 5.92 35.04 5.65L35.04 5.65L35.04 5.65Q35.67 5.38 36.51 5.38L36.51 5.38L36.51 5.38Q37.31 5.38 37.86 5.49L37.86 5.49L37.86 5.49Q38.42 5.60 38.68 5.87L38.68 5.87L38.68 5.87Q38.95 6.13 38.99 6.58L38.99 6.58L38.99 6.58Q39.03 7.03 39.03 7.83L39.03 7.83L38.61 7.83L38.61 7.83Q38.56 6.93 38.06 6.47L38.06 6.47L38.06 6.47Q37.56 6.01 36.72 6.01Z"></path></g><!----><!----></svg>